<?xml version="1.0" encoding="utf-8"?>
<!-- Generator: Adobe Illustrator 24.1.0, SVG Export Plug-In . SVG Version: 6.00 Build 0)  -->
<svg version="1.1" id="Layer_1" xmlns="http://www.w3.org/2000/svg" xmlns:xlink="http://www.w3.org/1999/xlink" x="0px" y="0px"
	 viewBox="0 0 833 424.6" style="enable-background:new 0 0 833 424.6;" xml:space="preserve">
<style type="text/css">
	.st0{display:none;}
	.st1{display:inline;fill:#00AEEF;}
	.st2{fill:#0E6F7D;}
	.st3{filter:url(#Adobe_OpacityMaskFilter);}
	.st4{opacity:0.25;mask:url(#SVGID_1_);fill:#0E6F7D;stroke:#0E6F7D;stroke-miterlimit:10;}
</style>
<g class="st0">
	<path class="st1" d="M3.8,314.6c-0.9,0-1.8-0.3-2.5-0.9c-0.8-0.7-1.3-1.8-1.3-2.9V113.9c0-1.1,0.5-2.2,1.4-2.9
		c0.9-0.7,2-1.1,3.1-0.9l25.1,4.1c1.9,0.3,3.2,1.9,3.2,3.8v188.8c0,1.9-1.4,3.5-3.2,3.8l-25.1,4C4.2,314.6,4,314.6,3.8,314.6z
		 M7.7,118.4v187.9l17.5-2.8V121.2L7.7,118.4z"/>
	<path class="st1" d="M829.1,314.6c-0.2,0-0.4,0-0.6,0l-25.1-4c-1.9-0.3-3.2-1.9-3.2-3.8V117.9c0-1.9,1.4-3.5,3.2-3.8l25.1-4.1
		c1.1-0.2,2.2,0.1,3.1,0.9c0.8,0.7,1.3,1.8,1.3,2.9v196.9c0,1.1-0.5,2.2-1.3,2.9C830.9,314.2,830,314.6,829.1,314.6z M807.8,303.4
		l17.5,2.8V118.4l-17.5,2.8V303.4z"/>
	<polygon class="st1" points="29,306.7 3.8,310.8 3.8,113.9 29,117.9 	"/>
	<polygon class="st1" points="804,117.9 829.1,113.9 829.1,310.7 804,306.7 	"/>
	<path class="st1" d="M3.8,314.6c-0.9,0-1.8-0.3-2.5-0.9c-0.8-0.7-1.3-1.8-1.3-2.9V113.9c0-1.1,0.5-2.2,1.4-2.9
		c0.9-0.7,2-1.1,3.1-0.9l25.1,4.1c1.9,0.3,3.2,1.9,3.2,3.8v188.8c0,1.9-1.4,3.5-3.2,3.8l-25.1,4C4.2,314.6,4,314.6,3.8,314.6z
		 M7.7,118.4v187.9l17.5-2.8V121.2L7.7,118.4z"/>
	<path class="st1" d="M829.1,314.6c-0.2,0-0.4,0-0.6,0l-25.1-4c-1.9-0.3-3.2-1.9-3.2-3.8V117.9c0-1.9,1.4-3.5,3.2-3.8l25.1-4.1
		c1.1-0.2,2.2,0.1,3.1,0.9c0.8,0.7,1.3,1.8,1.3,2.9v196.9c0,1.1-0.5,2.2-1.3,2.9C830.9,314.2,830,314.6,829.1,314.6z M807.8,303.4
		l17.5,2.8V118.4l-17.5,2.8V303.4z"/>
	<polygon class="st1" points="29,306.7 3.8,310.8 3.8,113.9 29,117.9 	"/>
	<polygon class="st1" points="804,117.9 829.1,113.9 829.1,310.7 804,306.7 	"/>
	<path class="st1" d="M3.8,31.8c-0.5,0-1.1-0.1-1.6-0.4C0.9,30.8,0,29.5,0,28V3.8C0,1.7,1.7,0,3.8,0h28.6c1.6,0,3,1,3.6,2.5
		s0.1,3.2-1.1,4.2L6.3,30.9C5.6,31.5,4.7,31.8,3.8,31.8z M7.7,7.7v12.1L22,7.7H7.7z"/>
	<path class="st1" d="M829.1,424.6H160.4c-1.9,0-3.4-1.3-3.8-3.1l-3.2-17.5h-16.6l-3.2,17.5c-0.3,1.8-1.9,3.1-3.8,3.1H81.3
		c-1.7,0-3.2-1.1-3.7-2.7l-3-9.8h-13l-3,9.8c-0.5,1.6-2,2.7-3.7,2.7H3.8c-2.1,0-3.8-1.7-3.8-3.8v-90.6c0-1.9,1.4-3.5,3.2-3.8
		l41.1-6.6V104.9L3.2,98.2C1.4,97.9,0,96.3,0,94.5V53c0-1.1,0.5-2.2,1.4-2.9L59.8,0.9C60.5,0.3,61.3,0,62.2,0h576.3
		c1.8,0,3.3,1.2,3.7,3l3.2,13.8h37L685.7,3c0.4-1.7,2-3,3.7-3h139.7c2.1,0,3.8,1.7,3.8,3.8v90.6c0,1.9-1.4,3.5-3.2,3.8l-41.1,6.6
		v214.9l41.1,6.6c1.8,0.3,3.2,1.9,3.2,3.8v90.6C833,422.9,831.2,424.6,829.1,424.6z M163.6,417h661.7v-83.5l-41.1-6.6
		c-1.9-0.3-3.2-1.9-3.2-3.8V101.6c0-1.9,1.4-3.5,3.2-3.8l41.1-6.6V7.7H692.4l-3.2,13.8c-0.4,1.7-2,3-3.7,3h-43.1
		c-1.8,0-3.3-1.2-3.7-3l-3.2-13.8H63.6l-56,47.1v36.4l41.1,6.6c1.9,0.3,3.2,1.9,3.2,3.8V323c0,1.9-1.4,3.5-3.2,3.8l-41.1,6.6v83.5
		h44.5l3-9.8c0.5-1.6,2-2.7,3.7-2.7h18.7c1.7,0,3.2,1.1,3.7,2.7l3,9.8h42.4l3.2-17.5c0.3-1.8,1.9-3.1,3.8-3.1h23
		c1.9,0,3.4,1.3,3.8,3.1L163.6,417z"/>
	<path class="st1" d="M811.9,405.1h-35c-1.5,0-2.9-0.9-3.5-2.3c-0.6-1.4-0.3-3,0.7-4.1l35-37.4c1.1-1.1,2.7-1.5,4.2-1
		c1.5,0.6,2.4,2,2.4,3.6v37.4C815.7,403.4,814,405.1,811.9,405.1z M785.7,397.4H808v-23.8L785.7,397.4z"/>
	<path class="st1" d="M3.8,31.8c-0.5,0-1.1-0.1-1.6-0.4C0.9,30.8,0,29.5,0,28V3.8C0,1.7,1.7,0,3.8,0h28.6c1.6,0,3,1,3.6,2.5
		s0.1,3.2-1.1,4.2L6.3,30.9C5.6,31.5,4.7,31.8,3.8,31.8z M7.7,7.7v12.1L22,7.7H7.7z"/>
	<path class="st1" d="M829.1,424.6H160.4c-1.9,0-3.4-1.3-3.8-3.1l-3.2-17.5h-16.6l-3.2,17.5c-0.3,1.8-1.9,3.1-3.8,3.1H81.3
		c-1.7,0-3.2-1.1-3.7-2.7l-3-9.8h-13l-3,9.8c-0.5,1.6-2,2.7-3.7,2.7H3.8c-2.1,0-3.8-1.7-3.8-3.8v-90.6c0-1.9,1.4-3.5,3.2-3.8
		l41.1-6.6V104.9L3.2,98.2C1.4,97.9,0,96.3,0,94.5V53c0-1.1,0.5-2.2,1.4-2.9L59.8,0.9C60.5,0.3,61.3,0,62.2,0h576.3
		c1.8,0,3.3,1.2,3.7,3l3.2,13.8h37L685.7,3c0.4-1.7,2-3,3.7-3h139.7c2.1,0,3.8,1.7,3.8,3.8v90.6c0,1.9-1.4,3.5-3.2,3.8l-41.1,6.6
		v214.9l41.1,6.6c1.8,0.3,3.2,1.9,3.2,3.8v90.6C833,422.9,831.2,424.6,829.1,424.6z M163.6,417h661.7v-83.5l-41.1-6.6
		c-1.9-0.3-3.2-1.9-3.2-3.8V101.6c0-1.9,1.4-3.5,3.2-3.8l41.1-6.6V7.7H692.4l-3.2,13.8c-0.4,1.7-2,3-3.7,3h-43.1
		c-1.8,0-3.3-1.2-3.7-3l-3.2-13.8H63.6l-56,47.1v36.4l41.1,6.6c1.9,0.3,3.2,1.9,3.2,3.8V323c0,1.9-1.4,3.5-3.2,3.8l-41.1,6.6v83.5
		h44.5l3-9.8c0.5-1.6,2-2.7,3.7-2.7h18.7c1.7,0,3.2,1.1,3.7,2.7l3,9.8h42.4l3.2-17.5c0.3-1.8,1.9-3.1,3.8-3.1h23
		c1.9,0,3.4,1.3,3.8,3.1L163.6,417z"/>
	<path class="st1" d="M811.9,405.1h-35c-1.5,0-2.9-0.9-3.5-2.3c-0.6-1.4-0.3-3,0.7-4.1l35-37.4c1.1-1.1,2.7-1.5,4.2-1
		c1.5,0.6,2.4,2,2.4,3.6v37.4C815.7,403.4,814,405.1,811.9,405.1z M785.7,397.4H808v-23.8L785.7,397.4z"/>
	<path class="st1" d="M3.8,314.6c-0.9,0-1.8-0.3-2.5-0.9c-0.8-0.7-1.3-1.8-1.3-2.9V113.9c0-1.1,0.5-2.2,1.4-2.9
		c0.9-0.7,2-1.1,3.1-0.9l25.1,4.1c1.9,0.3,3.2,1.9,3.2,3.8v188.8c0,1.9-1.4,3.5-3.2,3.8l-25.1,4C4.2,314.6,4,314.6,3.8,314.6z
		 M7.7,118.4v187.9l17.5-2.8V121.2L7.7,118.4z"/>
	<path class="st1" d="M829.1,314.6c-0.2,0-0.4,0-0.6,0l-25.1-4c-1.9-0.3-3.2-1.9-3.2-3.8V117.9c0-1.9,1.4-3.5,3.2-3.8l25.1-4.1
		c1.1-0.2,2.2,0.1,3.1,0.9c0.8,0.7,1.3,1.8,1.3,2.9v196.9c0,1.1-0.5,2.2-1.3,2.9C830.9,314.2,830,314.6,829.1,314.6z M807.8,303.4
		l17.5,2.8V118.4l-17.5,2.8V303.4z"/>
	<path class="st1" d="M3.8,314.6c-0.9,0-1.8-0.3-2.5-0.9c-0.8-0.7-1.3-1.8-1.3-2.9V113.9c0-1.1,0.5-2.2,1.4-2.9
		c0.9-0.7,2-1.1,3.1-0.9l25.1,4.1c1.9,0.3,3.2,1.9,3.2,3.8v188.8c0,1.9-1.4,3.5-3.2,3.8l-25.1,4C4.2,314.6,4,314.6,3.8,314.6z
		 M7.7,118.4v187.9l17.5-2.8V121.2L7.7,118.4z"/>
	<path class="st1" d="M829.1,314.6c-0.2,0-0.4,0-0.6,0l-25.1-4c-1.9-0.3-3.2-1.9-3.2-3.8V117.9c0-1.9,1.4-3.5,3.2-3.8l25.1-4.1
		c1.1-0.2,2.2,0.1,3.1,0.9c0.8,0.7,1.3,1.8,1.3,2.9v196.9c0,1.1-0.5,2.2-1.3,2.9C830.9,314.2,830,314.6,829.1,314.6z M807.8,303.4
		l17.5,2.8V118.4l-17.5,2.8V303.4z"/>
	<path class="st1" d="M3.8,31.8c-0.5,0-1.1-0.1-1.6-0.4C0.9,30.8,0,29.5,0,28V3.8C0,1.7,1.7,0,3.8,0h28.6c1.6,0,3,1,3.6,2.5
		s0.1,3.2-1.1,4.2L6.3,30.9C5.6,31.5,4.7,31.8,3.8,31.8z M7.7,7.7v12.1L22,7.7H7.7z"/>
	<path class="st1" d="M829.1,424.6H160.4c-1.9,0-3.4-1.3-3.8-3.1l-3.2-17.5h-16.6l-3.2,17.5c-0.3,1.8-1.9,3.1-3.8,3.1H81.3
		c-1.7,0-3.2-1.1-3.7-2.7l-3-9.8h-13l-3,9.8c-0.5,1.6-2,2.7-3.7,2.7H3.8c-2.1,0-3.8-1.7-3.8-3.8v-90.6c0-1.9,1.4-3.5,3.2-3.8
		l41.1-6.6V104.9L3.2,98.2C1.4,97.9,0,96.3,0,94.5V53c0-1.1,0.5-2.2,1.4-2.9L59.8,0.9C60.5,0.3,61.3,0,62.2,0h576.3
		c1.8,0,3.3,1.2,3.7,3l3.2,13.8h37L685.7,3c0.4-1.7,2-3,3.7-3h139.7c2.1,0,3.8,1.7,3.8,3.8v90.6c0,1.9-1.4,3.5-3.2,3.8l-41.1,6.6
		v214.9l41.1,6.6c1.8,0.3,3.2,1.9,3.2,3.8v90.6C833,422.9,831.2,424.6,829.1,424.6z M163.6,417h661.7v-83.5l-41.1-6.6
		c-1.9-0.3-3.2-1.9-3.2-3.8V101.6c0-1.9,1.4-3.5,3.2-3.8l41.1-6.6V7.7H692.4l-3.2,13.8c-0.4,1.7-2,3-3.7,3h-43.1
		c-1.8,0-3.3-1.2-3.7-3l-3.2-13.8H63.6l-56,47.1v36.4l41.1,6.6c1.9,0.3,3.2,1.9,3.2,3.8V323c0,1.9-1.4,3.5-3.2,3.8l-41.1,6.6v83.5
		h44.5l3-9.8c0.5-1.6,2-2.7,3.7-2.7h18.7c1.7,0,3.2,1.1,3.7,2.7l3,9.8h42.4l3.2-17.5c0.3-1.8,1.9-3.1,3.8-3.1h23
		c1.9,0,3.4,1.3,3.8,3.1L163.6,417z"/>
	<path class="st1" d="M811.9,405.1h-35c-1.5,0-2.9-0.9-3.5-2.3c-0.6-1.4-0.3-3,0.7-4.1l35-37.4c1.1-1.1,2.7-1.5,4.2-1
		c1.5,0.6,2.4,2,2.4,3.6v37.4C815.7,403.4,814,405.1,811.9,405.1z M785.7,397.4H808v-23.8L785.7,397.4z"/>
	<path class="st1" d="M3.8,31.8c-0.5,0-1.1-0.1-1.6-0.4C0.9,30.8,0,29.5,0,28V3.8C0,1.7,1.7,0,3.8,0h28.6c1.6,0,3,1,3.6,2.5
		s0.1,3.2-1.1,4.2L6.3,30.9C5.6,31.5,4.7,31.8,3.8,31.8z M7.7,7.7v12.1L22,7.7H7.7z"/>
	<path class="st1" d="M829.1,424.6H160.4c-1.9,0-3.4-1.3-3.8-3.1l-3.2-17.5h-16.6l-3.2,17.5c-0.3,1.8-1.9,3.1-3.8,3.1H81.3
		c-1.7,0-3.2-1.1-3.7-2.7l-3-9.8h-13l-3,9.8c-0.5,1.6-2,2.7-3.7,2.7H3.8c-2.1,0-3.8-1.7-3.8-3.8v-90.6c0-1.9,1.4-3.5,3.2-3.8
		l41.1-6.6V104.9L3.2,98.2C1.4,97.9,0,96.3,0,94.5V53c0-1.1,0.5-2.2,1.4-2.9L59.8,0.9C60.5,0.3,61.3,0,62.2,0h576.3
		c1.8,0,3.3,1.2,3.7,3l3.2,13.8h37L685.7,3c0.4-1.7,2-3,3.7-3h139.7c2.1,0,3.8,1.7,3.8,3.8v90.6c0,1.9-1.4,3.5-3.2,3.8l-41.1,6.6
		v214.9l41.1,6.6c1.8,0.3,3.2,1.9,3.2,3.8v90.6C833,422.9,831.2,424.6,829.1,424.6z M163.6,417h661.7v-83.5l-41.1-6.6
		c-1.9-0.3-3.2-1.9-3.2-3.8V101.6c0-1.9,1.4-3.5,3.2-3.8l41.1-6.6V7.7H692.4l-3.2,13.8c-0.4,1.7-2,3-3.7,3h-43.1
		c-1.8,0-3.3-1.2-3.7-3l-3.2-13.8H63.6l-56,47.1v36.4l41.1,6.6c1.9,0.3,3.2,1.9,3.2,3.8V323c0,1.9-1.4,3.5-3.2,3.8l-41.1,6.6v83.5
		h44.5l3-9.8c0.5-1.6,2-2.7,3.7-2.7h18.7c1.7,0,3.2,1.1,3.7,2.7l3,9.8h42.4l3.2-17.5c0.3-1.8,1.9-3.1,3.8-3.1h23
		c1.9,0,3.4,1.3,3.8,3.1L163.6,417z"/>
	<path class="st1" d="M811.9,405.1h-35c-1.5,0-2.9-0.9-3.5-2.3c-0.6-1.4-0.3-3,0.7-4.1l35-37.4c1.1-1.1,2.7-1.5,4.2-1
		c1.5,0.6,2.4,2,2.4,3.6v37.4C815.7,403.4,814,405.1,811.9,405.1z M785.7,397.4H808v-23.8L785.7,397.4z"/>
</g>
<g>
	<path class="st2" d="M825,7.7v83l-44,7v229l44,7v83H164l-4-20h-29l-4,20H84l-4-12H56l-4,12H8v-83l44-7.4V98.7l-44-8v-36l56-47h572
		l3.9,16.7H688h0.6L692,7.7L825,7.7 M832,0.7h-7H692h-5.7l-1.2,5.6l-2.3,11.1h-37.4l-2.6-11.3l-1.3-5.4H636H64h-2.5l-2,1.6l-56,47
		L1,51.5v3.3v36v5.8l5.8,1.1l38.2,6.9v215.8l-38.2,6.4l-5.8,1v5.9v83v7h7h44h5l1.6-4.8l2.4-7.2h13.9l2.4,7.2l1.6,4.8H84h43h5.7
		l1.1-5.6l2.9-14.4h17.5l2.9,14.4l1.1,5.6h5.7h661h7v-7v-83v-6l-5.9-0.9l-38.1-6.1V103.7l38.1-6.1l5.9-0.9v-6v-83L832,0.7L832,0.7z"
		/>
	<defs>
		<filter id="Adobe_OpacityMaskFilter" filterUnits="userSpaceOnUse" x="7.5" y="7.2" width="818" height="410">
			<feFlood  style="flood-color:white;flood-opacity:1" result="back"/>
			<feBlend  in="SourceGraphic" in2="back" mode="normal"/>
		</filter>
	</defs>
	<mask maskUnits="userSpaceOnUse" x="7.5" y="7.2" width="818" height="410" id="SVGID_1_">
		<g class="st3">
			<path d="M808.3,373.3v24h-23L808.3,373.3"/>
		</g>
	</mask>
	<path class="st4" d="M825,7.7v83l-44,7v229l44,7v83H164l-4-20h-29l-4,20H84l-4-12H56l-4,12H8v-83l44-7.4V98.7l-44-8v-36l56-47h572
		l3.9,16.7H688h0.6L692,7.7L825,7.7"/>
	<path class="st2" d="M808.5,373.2v24h-23L808.5,373.2 M815.5,355.8l-12,12.6l-23,24l-11.3,11.8h16.4h23h7v-7v-24L815.5,355.8
		L815.5,355.8z"/>
	<g>
		<path class="st2" d="M832.5,109.9l-8.2,1.4l-18,3l-5.8,1v5.9v182v5.9l5.8,1l18,3l8.2,1.4v-8.3v-188V109.9L832.5,109.9z"/>
	</g>
	<path class="st2" d="M22.5,7.2l-15,13v-13L22.5,7.2 M41.2,0.2H22.5h-15h-7v7v13v15.3l11.6-10l15-13L41.2,0.2L41.2,0.2z"/>
	<g>
		<path class="st2" d="M0.5,109.9v8.3v188v8.3l8.1-1.4l18-3l5.8-1v-5.9v-182v-5.9l-5.9-1l-18-3L0.5,109.9L0.5,109.9z"/>
	</g>
</g>
</svg>
