<?xml version="1.0" encoding="utf-8"?>
<!-- Generator: Adobe Illustrator 24.1.0, SVG Export Plug-In . SVG Version: 6.00 Build 0)  -->
<svg version="1.1" xmlns="http://www.w3.org/2000/svg" xmlns:xlink="http://www.w3.org/1999/xlink" x="0px" y="0px"
	 viewBox="0 0 706.27 706.27" style="enable-background:new 0 0 706.27 706.27;" xml:space="preserve">
<style type="text/css">
	.st0{display:none;}
	.st1{display:inline;}
	.st2{fill:url(#SVGID_1_);}
	.st3{fill:url(#SVGID_2_);}
	.st4{fill:url(#SVGID_3_);}
	.st5{fill:url(#SVGID_4_);}
	.st6{fill:url(#SVGID_5_);}
	.st7{fill:url(#SVGID_6_);}
	.st8{fill:url(#SVGID_7_);}
	.st9{fill:url(#SVGID_8_);}
	.st10{fill:url(#SVGID_9_);}
	.st11{fill:url(#SVGID_10_);}
	.st12{fill:url(#SVGID_11_);}
	.st13{fill:url(#SVGID_12_);}
	.st14{fill:url(#SVGID_13_);}
	.st15{fill:url(#SVGID_14_);}
	.st16{fill:url(#SVGID_15_);}
	.st17{fill:url(#SVGID_16_);}
	.st18{fill:url(#SVGID_17_);}
	.st19{fill:url(#SVGID_18_);}
	.st20{fill:url(#SVGID_19_);}
	.st21{fill:url(#SVGID_20_);}
	.st22{fill:url(#SVGID_21_);}
	.st23{fill:url(#SVGID_22_);}
	.st24{fill:url(#SVGID_23_);}
	.st25{fill:url(#SVGID_24_);}
	.st26{fill:url(#SVGID_25_);}
	.st27{fill:url(#SVGID_26_);}
	.st28{fill:url(#SVGID_27_);}
	.st29{fill:url(#SVGID_28_);}
	.st30{fill:url(#SVGID_29_);}
	.st31{fill:url(#SVGID_30_);}
	.st32{fill:url(#SVGID_31_);}
	.st33{fill:url(#SVGID_32_);}
	.st34{fill:url(#SVGID_33_);}
	.st35{fill:url(#SVGID_34_);}
	.st36{fill:url(#SVGID_35_);}
	.st37{fill:url(#SVGID_36_);}
	.st38{fill:url(#SVGID_37_);}
	.st39{fill:url(#SVGID_38_);}
	.st40{fill:url(#SVGID_39_);}
	.st41{display:none;fill:none;stroke:url(#SVGID_40_);stroke-miterlimit:10;}
</style>
<g id="Layer_2" class="st0">
	<rect x="-21.68" y="0.5" class="st1" width="755.99" height="755.99"/>
</g>
<g id="Layer_1">
	<g>
		<g>
			<linearGradient id="SVGID_1_" gradientUnits="userSpaceOnUse" x1="-5.051" y1="331.7034" x2="164.9245" y2="127.733">
				<stop  offset="0.1721" style="stop-color:#154C5A"/>
				<stop  offset="1" style="stop-color:#0E6F7D"/>
			</linearGradient>
			<path class="st2" d="M28.13,354.93h-5.31c0-96.1,41.73-187.3,114.5-250.2l3.48,4.02C69.2,170.64,28.13,260.37,28.13,354.93z"/>
			<linearGradient id="SVGID_2_" gradientUnits="userSpaceOnUse" x1="161.443" y1="625.3273" x2="213.1262" y2="563.3076">
				<stop  offset="0.1721" style="stop-color:#154C5A"/>
				<stop  offset="1" style="stop-color:#0E6F7D"/>
			</linearGradient>
			<path class="st3" d="M353.42,685.53c-68,0-133.31-20.48-188.88-59.23c-54.31-37.88-95.62-90.4-119.47-151.88l4.96-1.92
				c48.18,124.24,170.1,207.72,303.39,207.72V685.53z"/>
			<linearGradient id="SVGID_3_" gradientUnits="userSpaceOnUse" x1="500.9681" y1="650.6443" x2="509.0779" y2="640.9125">
				<stop  offset="0.1721" style="stop-color:#154C5A"/>
				<stop  offset="1" style="stop-color:#0E6F7D"/>
			</linearGradient>
			<path class="st4" d="M501.13,650.78l-2.38-4.75c3.4-1.7,6.8-3.48,10.12-5.29l2.54,4.67
				C508.04,647.24,504.58,649.05,501.13,650.78z"/>
			<linearGradient id="SVGID_4_" gradientUnits="userSpaceOnUse" x1="526.8485" y1="644.1981" x2="637.3715" y2="511.5706">
				<stop  offset="0.1721" style="stop-color:#154C5A"/>
				<stop  offset="1" style="stop-color:#0E6F7D"/>
			</linearGradient>
			<path class="st5" d="M521.45,639.7l-2.64-4.61c47.55-27.22,88.68-69.41,118.93-122.02l4.61,2.65
				C611.63,569.14,569.82,612.01,521.45,639.7z"/>
			<linearGradient id="SVGID_5_" gradientUnits="userSpaceOnUse" x1="595.9991" y1="240.5651" x2="651.9409" y2="173.435">
				<stop  offset="0.1721" style="stop-color:#154C5A"/>
				<stop  offset="1" style="stop-color:#0E6F7D"/>
			</linearGradient>
			<path class="st6" d="M675.12,306.5c-11.38-76.28-49.89-146.31-108.42-197.18l3.49-4.01c59.49,51.7,98.62,122.88,110.2,200.41
				L675.12,306.5z"/>
			<linearGradient id="SVGID_6_" gradientUnits="userSpaceOnUse" x1="23.6582" y1="442.7061" x2="156.9968" y2="282.7">
				<stop  offset="0.1721" style="stop-color:#154C5A"/>
				<stop  offset="1" style="stop-color:#0E6F7D"/>
			</linearGradient>
			<path class="st7" d="M88.75,496.95c-22.94-43.03-35.06-91.71-35.06-140.78c0-45.06,9.76-88.38,29-128.76l18.59,8.86
				c-17.91,37.59-27,77.93-27,119.91c0,45.7,11.29,91.03,32.64,131.09L88.75,496.95z"/>
			<linearGradient id="SVGID_7_" gradientUnits="userSpaceOnUse" x1="97.8354" y1="492.1054" x2="97.8354" y2="492.1054">
				<stop  offset="0.1721" style="stop-color:#154C5A"/>
				<stop  offset="1" style="stop-color:#0E6F7D"/>
			</linearGradient>
			<path class="st8" d="M97.84,492.11"/>
			<linearGradient id="SVGID_8_" gradientUnits="userSpaceOnUse" x1="123.3509" y1="549.275" x2="137.5656" y2="532.2173">
				<stop  offset="0.1721" style="stop-color:#154C5A"/>
				<stop  offset="1" style="stop-color:#0E6F7D"/>
			</linearGradient>
			<path class="st9" d="M126.26,551.7c-2.41-2.8-4.8-5.68-7.11-8.56l16.09-12.86c2.15,2.69,4.38,5.37,6.62,7.98L126.26,551.7z"/>
			<linearGradient id="SVGID_9_" gradientUnits="userSpaceOnUse" x1="135.932" y1="563.3526" x2="150.0927" y2="546.3598">
				<stop  offset="0.1721" style="stop-color:#154C5A"/>
				<stop  offset="1" style="stop-color:#0E6F7D"/>
			</linearGradient>
			<path class="st10" d="M140.8,567.41c-3.43-3.45-6.83-7.04-10.1-10.67l15.3-13.79c3.05,3.38,6.21,6.73,9.41,9.94L140.8,567.41z"/>
			<linearGradient id="SVGID_10_" gradientUnits="userSpaceOnUse" x1="158.2358" y1="583.661" x2="171.8769" y2="567.2917">
				<stop  offset="0.1721" style="stop-color:#154C5A"/>
				<stop  offset="1" style="stop-color:#0E6F7D"/>
			</linearGradient>
			<path class="st11" d="M171.51,594.38c-9-6.88-17.7-14.35-25.88-22.22l14.28-14.84c7.62,7.33,15.73,14.29,24.11,20.7
				L171.51,594.38z"/>
			<linearGradient id="SVGID_11_" gradientUnits="userSpaceOnUse" x1="530.0991" y1="590.1301" x2="560.6089" y2="553.5184">
				<stop  offset="0.1721" style="stop-color:#154C5A"/>
				<stop  offset="1" style="stop-color:#0E6F7D"/>
			</linearGradient>
			<path class="st12" d="M535.21,594.39l-12.51-16.36c11.51-8.8,22.43-18.58,32.45-29.06l14.89,14.23
				C559.29,574.44,547.57,584.94,535.21,594.39z"/>
			<linearGradient id="SVGID_12_" gradientUnits="userSpaceOnUse" x1="562.5955" y1="556.0654" x2="562.5955" y2="556.0654">
				<stop  offset="0.1721" style="stop-color:#154C5A"/>
				<stop  offset="1" style="stop-color:#0E6F7D"/>
			</linearGradient>
			<path class="st13" d="M562.6,556.07"/>
			<linearGradient id="SVGID_13_" gradientUnits="userSpaceOnUse" x1="480.4074" y1="460.022" x2="669.5361" y2="233.0677">
				<stop  offset="0.1721" style="stop-color:#154C5A"/>
				<stop  offset="1" style="stop-color:#0E6F7D"/>
			</linearGradient>
			<path class="st14" d="M583.84,546.1l-14.3-11.8c41.23-49.97,63.93-113.23,63.93-178.13c0-73.25-28.09-142.54-79.1-195.08
				l13.3-12.91c54.39,56.03,84.34,129.89,84.34,207.99c0,35.28-6.09,69.82-18.12,102.66C622.28,490.56,605.44,519.93,583.84,546.1z"
				/>
			<linearGradient id="SVGID_14_" gradientUnits="userSpaceOnUse" x1="395.8212" y1="112.4836" x2="446.7089" y2="51.4183">
				<stop  offset="0.1721" style="stop-color:#154C5A"/>
				<stop  offset="1" style="stop-color:#0E6F7D"/>
			</linearGradient>
			<path class="st15" d="M486.38,110.77C445.82,88.74,399.83,77.1,353.36,77.1V56.5c49.89,0,99.28,12.51,142.85,36.17L486.38,110.77
				z"/>
			<linearGradient id="SVGID_15_" gradientUnits="userSpaceOnUse" x1="158.2245" y1="219.0796" x2="270.6532" y2="84.1652">
				<stop  offset="0.1721" style="stop-color:#154C5A"/>
				<stop  offset="1" style="stop-color:#0E6F7D"/>
			</linearGradient>
			<path class="st16" d="M143.54,206.06l-6.7-4.8c36.59-51.06,90.08-87.66,150.63-103.08l2.03,7.98
				C230.84,121.11,179.01,156.58,143.54,206.06z"/>
			<linearGradient id="SVGID_16_" gradientUnits="userSpaceOnUse" x1="140.1855" y1="203.6555" x2="140.1855" y2="203.6555">
				<stop  offset="0.1721" style="stop-color:#154C5A"/>
				<stop  offset="1" style="stop-color:#0E6F7D"/>
			</linearGradient>
			<path class="st17" d="M140.19,203.66"/>
			<linearGradient id="SVGID_17_" gradientUnits="userSpaceOnUse" x1="76.9015" y1="470.6671" x2="195.0294" y2="328.9138">
				<stop  offset="0.1721" style="stop-color:#154C5A"/>
				<stop  offset="1" style="stop-color:#0E6F7D"/>
			</linearGradient>
			<path class="st18" d="M163.82,543.1c-49.44-50.13-76.67-116.51-76.67-186.92c0-33.93,6.3-66.98,18.71-98.23l7.66,3.04
				c-12.03,30.28-18.13,62.31-18.13,95.19c0,68.23,26.38,132.56,74.29,181.14L163.82,543.1z"/>
			<linearGradient id="SVGID_18_" gradientUnits="userSpaceOnUse" x1="258.9352" y1="621.2637" x2="296.8197" y2="575.8024">
				<stop  offset="0.1721" style="stop-color:#154C5A"/>
				<stop  offset="1" style="stop-color:#0E6F7D"/>
			</linearGradient>
			<path class="st19" d="M342.22,622.15c-46.92-1.93-92.59-16.3-132.07-41.54l4.44-6.94c38.25,24.46,82.5,38.37,127.97,40.25
				L342.22,622.15z"/>
			<linearGradient id="SVGID_19_" gradientUnits="userSpaceOnUse" x1="395.7873" y1="648.407" x2="554.2448" y2="458.2581">
				<stop  offset="0.1721" style="stop-color:#154C5A"/>
				<stop  offset="1" style="stop-color:#0E6F7D"/>
			</linearGradient>
			<path class="st20" d="M364.29,622.16l-0.33-8.23c89.31-3.61,171.76-54.52,215.2-132.89l7.21,3.99
				c-21.79,39.32-53.45,72.76-91.55,96.7C455.69,606.31,410.56,620.29,364.29,622.16z"/>
			<linearGradient id="SVGID_20_" gradientUnits="userSpaceOnUse" x1="563.4349" y1="302.37" x2="615.2227" y2="240.2248">
				<stop  offset="0.1721" style="stop-color:#154C5A"/>
				<stop  offset="1" style="stop-color:#0E6F7D"/>
			</linearGradient>
			<path class="st21" d="M613.63,344.2c-2.38-52.73-20.46-102.86-52.27-144.95l2.46-1.86c32.19,42.6,50.48,93.32,52.89,146.68
				L613.63,344.2z"/>
			<linearGradient id="SVGID_21_" gradientUnits="userSpaceOnUse" x1="438.0449" y1="168.7801" x2="481.5816" y2="116.5361">
				<stop  offset="0.1721" style="stop-color:#154C5A"/>
				<stop  offset="1" style="stop-color:#0E6F7D"/>
			</linearGradient>
			<path class="st22" d="M559.31,200.8C510.04,135.6,434.98,98.21,353.36,98.21v-8.24c42.45,0,83.03,9.7,120.6,28.82
				c35.83,18.24,67.62,44.88,91.92,77.04L559.31,200.8z"/>
			<linearGradient id="SVGID_22_" gradientUnits="userSpaceOnUse" x1="404.5587" y1="541.8365" x2="466.23" y2="467.8309">
				<stop  offset="0.1721" style="stop-color:#154C5A"/>
				<stop  offset="1" style="stop-color:#0E6F7D"/>
			</linearGradient>
			<path class="st23" d="M400.59,538.53l-7.63-29.94c6.11-1.56,12.19-3.5,18.07-5.77c20.25-7.81,39.19-20.03,54.79-35.33
				l21.64,22.05c-18.58,18.23-41.16,32.79-65.3,42.1C415.14,534.36,407.88,536.67,400.59,538.53z"/>
			<linearGradient id="SVGID_23_" gradientUnits="userSpaceOnUse" x1="485.0513" y1="469.467" x2="497.4537" y2="454.584">
				<stop  offset="0.1721" style="stop-color:#154C5A"/>
				<stop  offset="1" style="stop-color:#0E6F7D"/>
			</linearGradient>
			<path class="st24" d="M497.03,479.45l-23.17-20.43c3.58-4.06,6.98-8.34,10.13-12.73l25.11,18
				C505.36,469.51,501.29,474.61,497.03,479.45z"/>
			<linearGradient id="SVGID_24_" gradientUnits="userSpaceOnUse" x1="461.2725" y1="377.508" x2="551.3471" y2="269.4185">
				<stop  offset="0.1721" style="stop-color:#154C5A"/>
				<stop  offset="1" style="stop-color:#0E6F7D"/>
			</linearGradient>
			<path class="st25" d="M531.42,423.45l-28.71-11.41c7.5-18.88,11.3-38.85,11.3-59.36c0-42.55-16.45-82.67-46.33-112.96l22-21.69
				c35.62,36.11,55.23,83.93,55.23,134.66C544.91,377.11,540.37,400.92,531.42,423.45z"/>
			<linearGradient id="SVGID_25_" gradientUnits="userSpaceOnUse" x1="170.7223" y1="379.7462" x2="184.8477" y2="362.7957">
				<stop  offset="0.1721" style="stop-color:#154C5A"/>
				<stop  offset="1" style="stop-color:#0E6F7D"/>
			</linearGradient>
			<path class="st26" d="M174.11,382.57c-1.17-7.09-1.94-14.34-2.26-21.56l10.29-0.47c0.31,6.81,1.03,13.65,2.14,20.34
				L174.11,382.57z"/>
			<linearGradient id="SVGID_26_" gradientUnits="userSpaceOnUse" x1="183.5005" y1="441.3463" x2="208.58" y2="411.2509">
				<stop  offset="0.1721" style="stop-color:#154C5A"/>
				<stop  offset="1" style="stop-color:#0E6F7D"/>
			</linearGradient>
			<path class="st27" d="M208.26,461.98c-14.85-19.66-25.75-42.66-31.52-66.5l10.01-2.42c5.44,22.49,15.72,44.17,29.73,62.71
				L208.26,461.98z"/>
			<linearGradient id="SVGID_27_" gradientUnits="userSpaceOnUse" x1="260.7686" y1="525.3016" x2="304.4007" y2="472.9432">
				<stop  offset="0.1721" style="stop-color:#154C5A"/>
				<stop  offset="1" style="stop-color:#0E6F7D"/>
			</linearGradient>
			<path class="st28" d="M353.14,544.45c-30.58,0-59.81-6.99-86.88-20.77c-25.81-13.14-48.7-32.32-66.21-55.49l24.65-18.62
				c30.73,40.67,77.54,63.99,128.44,63.99V544.45z"/>
			<linearGradient id="SVGID_28_" gradientUnits="userSpaceOnUse" x1="364.2281" y1="628.7393" x2="451.0855" y2="524.5104">
				<stop  offset="0.1721" style="stop-color:#154C5A"/>
				<stop  offset="1" style="stop-color:#0E6F7D"/>
			</linearGradient>
			<path class="st29" d="M353.05,599.29c-8.61,0-17.22-0.46-25.83-1.39l0.44-4.1c55.8,6.02,112.33-8.01,159.16-39.51l2.3,3.42
				C448.7,584.89,401.19,599.29,353.05,599.29z"/>
			<linearGradient id="SVGID_29_" gradientUnits="userSpaceOnUse" x1="529.9463" y1="515.9061" x2="571.0193" y2="466.6186">
				<stop  offset="0.1721" style="stop-color:#154C5A"/>
				<stop  offset="1" style="stop-color:#0E6F7D"/>
			</linearGradient>
			<path class="st30" d="M533.73,519.06l-3.06-2.76c14.21-15.72,26.26-33.29,35.83-52.24l3.68,1.86
				C560.45,485.19,548.19,503.07,533.73,519.06z"/>
			<linearGradient id="SVGID_30_" gradientUnits="userSpaceOnUse" x1="572.2581" y1="453.1843" x2="579.0802" y2="444.9977">
				<stop  offset="0.1721" style="stop-color:#154C5A"/>
				<stop  offset="1" style="stop-color:#0E6F7D"/>
			</linearGradient>
			<path class="st31" d="M575.57,454.52l-3.75-1.7c1.35-2.98,2.64-6.01,3.85-9.02l3.82,1.54
				C578.27,448.41,576.95,451.5,575.57,454.52z"/>
			<linearGradient id="SVGID_31_" gradientUnits="userSpaceOnUse" x1="578.9202" y1="431.4677" x2="589.8161" y2="418.3927">
				<stop  offset="0.1721" style="stop-color:#154C5A"/>
				<stop  offset="1" style="stop-color:#0E6F7D"/>
			</linearGradient>
			<path class="st32" d="M583.83,433.65l-3.9-1.34c1.79-5.22,3.41-10.56,4.81-15.88l3.98,1.05
				C587.3,422.89,585.66,428.33,583.83,433.65z"/>
			<linearGradient id="SVGID_32_" gradientUnits="userSpaceOnUse" x1="548.333" y1="371.2734" x2="615.8289" y2="290.2784">
				<stop  offset="0.1721" style="stop-color:#154C5A"/>
				<stop  offset="1" style="stop-color:#0E6F7D"/>
			</linearGradient>
			<path class="st33" d="M591.66,404.92l-4.02-0.89c10.34-46.92,4.72-97.41-16.27-146.02l3.78-1.63
				C596.47,305.79,602.18,357.15,591.66,404.92z"/>
			<linearGradient id="SVGID_33_" gradientUnits="userSpaceOnUse" x1="309.2267" y1="172.0299" x2="381.4923" y2="85.3112">
				<stop  offset="0.1721" style="stop-color:#154C5A"/>
				<stop  offset="1" style="stop-color:#0E6F7D"/>
			</linearGradient>
			<path class="st34" d="M263.71,134.1l-1.71-3.75c19.12-8.73,40.26-13.71,68.53-16.17c31.96-4,65.01-0.47,98.18,10.48l-1.29,3.91
				c-32.58-10.76-65.03-14.23-96.45-10.3C303.1,120.7,282.39,125.57,263.71,134.1z"/>
			<linearGradient id="SVGID_34_" gradientUnits="userSpaceOnUse" x1="203.3635" y1="179.2738" x2="244.2578" y2="130.2007">
				<stop  offset="0.1721" style="stop-color:#154C5A"/>
				<stop  offset="1" style="stop-color:#0E6F7D"/>
			</linearGradient>
			<path class="st35" d="M197.43,174.33l-2.68-3.13c16.83-14.4,35.57-26.46,55.71-35.83l1.74,3.73
				C232.4,148.32,213.97,160.17,197.43,174.33z"/>
			<linearGradient id="SVGID_35_" gradientUnits="userSpaceOnUse" x1="117.0079" y1="300.1875" x2="120.9555" y2="295.4504">
				<stop  offset="0.1721" style="stop-color:#154C5A"/>
				<stop  offset="1" style="stop-color:#0E6F7D"/>
			</linearGradient>
			<path class="st36" d="M120.42,300.65l-4.01-0.96c0.38-1.59,0.77-3.17,1.19-4.75l3.99,1.04
				C121.18,297.53,120.79,299.09,120.42,300.65z"/>
			<linearGradient id="SVGID_36_" gradientUnits="userSpaceOnUse" x1="111.9135" y1="320.5038" x2="118.2414" y2="312.9104">
				<stop  offset="0.1721" style="stop-color:#154C5A"/>
				<stop  offset="1" style="stop-color:#0E6F7D"/>
			</linearGradient>
			<path class="st37" d="M116.42,321.46l-4.08-0.6c0.44-3,0.94-6.03,1.49-9l4.05,0.75C117.34,315.53,116.85,318.51,116.42,321.46z"
				/>
			<linearGradient id="SVGID_37_" gradientUnits="userSpaceOnUse" x1="108.6686" y1="344.0397" x2="116.2948" y2="334.8882">
				<stop  offset="0.1721" style="stop-color:#154C5A"/>
				<stop  offset="1" style="stop-color:#0E6F7D"/>
			</linearGradient>
			<path class="st38" d="M114.24,345.4l-4.12-0.15c0.15-3.94,0.38-7.92,0.71-11.83l4.11,0.34
				C114.62,337.61,114.39,341.52,114.24,345.4z"/>
			<linearGradient id="SVGID_38_" gradientUnits="userSpaceOnUse" x1="100.9202" y1="409.5127" x2="132.4645" y2="371.6596">
				<stop  offset="0.1721" style="stop-color:#154C5A"/>
				<stop  offset="1" style="stop-color:#0E6F7D"/>
			</linearGradient>
			<path class="st39" d="M119.96,425.38c-6.47-22.42-9.84-45.64-10-69.01l4.12-0.03c0.16,23,3.47,45.84,9.83,67.9L119.96,425.38z"/>
			<linearGradient id="SVGID_39_" gradientUnits="userSpaceOnUse" x1="176.577" y1="525.6145" x2="204.8636" y2="491.6707">
				<stop  offset="0.1721" style="stop-color:#154C5A"/>
				<stop  offset="1" style="stop-color:#0E6F7D"/>
			</linearGradient>
			<path class="st40" d="M268.16,583.9c-36.35-13.55-68.01-34.81-94.07-63.18c-24.86-27.06-43.58-60.02-54.13-95.33l3.95-1.18
				c21.69,72.6,74.79,129.39,145.69,155.82L268.16,583.9z"/>
		</g>
	</g>
	<linearGradient id="SVGID_40_" gradientUnits="userSpaceOnUse" x1="127.0579" y1="624.4283" x2="579.213" y2="81.8426">
		<stop  offset="0.1721" style="stop-color:#154C5A"/>
		<stop  offset="1" style="stop-color:#0E6F7D"/>
	</linearGradient>
	<circle class="st41" cx="353.14" cy="353.14" r="352.64"/>
</g>
</svg>
