<?xml version="1.0" encoding="utf-8"?>
<!-- Generator: Adobe Illustrator 24.1.0, SVG Export Plug-In . SVG Version: 6.00 Build 0)  -->
<svg version="1.1" id="Layer_1" xmlns="http://www.w3.org/2000/svg" xmlns:xlink="http://www.w3.org/1999/xlink" x="0px" y="0px"
	 viewBox="0 0 833.1 481.3" style="enable-background:new 0 0 833.1 481.3;" xml:space="preserve">
<style type="text/css">
	.st0{display:none;}
	.st1{display:inline;fill:#0E6F7D;}
	.st2{fill:#0E6F7D;}
	.st3{opacity:0.25;fill:#0E6F7D;stroke:#0E6F7D;stroke-miterlimit:10;}
</style>
<g class="st0">
	<path class="st1" d="M457.7,481H184.6l8.4-44.5h256.4L457.7,481z M193.8,473.3h254.6l-5.5-29.1H199.3L193.8,473.3z"/>
	<polygon class="st1" points="453.1,477.2 189.2,477.2 196.1,440.4 446.1,440.4 	"/>
	<polygon class="st1" points="453.1,477.2 189.2,477.2 196.1,440.4 446.1,440.4 	"/>
	<path class="st1" d="M666.4,82.9H441.6l-4.9-26.5h234.6L666.4,82.9z M448,75.2h212l2.1-11.2H445.9L448,75.2z"/>
	<polygon class="st1" points="444.8,79.1 441.3,60.2 666.7,60.2 663.2,79.1 	"/>
	<path class="st1" d="M666.4,82.9H441.6l-4.9-26.5h234.6L666.4,82.9z M448,75.2h212l2.1-11.2H445.9L448,75.2z"/>
	<polygon class="st1" points="444.8,79.1 441.3,60.2 666.7,60.2 663.2,79.1 	"/>
	<path class="st1" d="M0,195.9v-55.4l84.1-84.1h341l7,38h243.9l7.1-38h150v45.7l-11.4,2.9v9.4l11.4,2.9v78.6l0,4.4v136.8l0,4.4v55.4
		l-1.1,1.1L748.9,481h-90l-4.8-11.9h-19.7l-4.8,11.9H469.4l-10.5-56H183.4l-10.5,56H0V341.5 M7.7,348.4v124.9h158.8l10.5-56h288.2
		l10.5,56h148.7l4.8-11.9h30.1l4.8,11.9h81.6l79.6-79.6v-45.3l0-4.4V193.4l0-4.4v-65.8l-11.4-2.9V99l11.4-2.9V64.1H689.4l-7,38
		H425.7l-7-38H87.2L7.7,143.6V189"/>
	<path class="st1" d="M0,195.9v-55.4l84.1-84.1h341l7,38h243.9l7.1-38h150v45.7l-11.4,2.9v9.4l11.4,2.9v78.6l0,4.4v136.8l0,4.4v55.4
		l-1.1,1.1L748.9,481h-90l-4.8-11.9h-19.7l-4.8,11.9H469.4l-10.5-56H183.4l-10.5,56H0V341.5 M7.7,348.4v124.9h158.8l10.5-56h288.2
		l10.5,56h148.7l4.8-11.9h30.1l4.8,11.9h81.6l79.6-79.6v-45.3l0-4.4V193.4l0-4.4v-65.8l-11.4-2.9V99l11.4-2.9V64.1H689.4l-7,38
		H425.7l-7-38H87.2L7.7,143.6V189"/>
	<polygon class="st1" points="299.1,62.1 292.8,57.7 332.3,0 833.1,0 833.1,59.9 825.5,59.9 825.5,7.7 336.4,7.7 	"/>
	<polygon class="st1" points="299.1,62.1 292.8,57.7 332.3,0 833.1,0 833.1,59.9 825.5,59.9 825.5,7.7 336.4,7.7 	"/>
	
		<rect x="251.7" y="55.7" transform="matrix(0.5677 -0.8232 0.8232 0.5677 59.9569 233.3038)" class="st1" width="0.9" height="7.7"/>
	
		<rect x="207.6" y="55.7" transform="matrix(0.5677 -0.8232 0.8232 0.5677 40.9065 197.0096)" class="st1" width="0.9" height="7.7"/>
	
		<rect x="163.5" y="55.7" transform="matrix(0.5676 -0.8233 0.8233 0.5676 21.8671 160.7314)" class="st1" width="0.9" height="7.7"/>
	<polygon class="st1" points="310.3,10.9 285.9,46.7 241.8,46.7 266.2,10.9 	"/>
	<polygon class="st1" points="250.9,10.9 226.4,46.7 182.3,46.7 206.8,10.9 	"/>
	<polygon class="st1" points="191.5,10.9 167,46.7 122.9,46.7 147.4,10.9 	"/>
	<polygon class="st1" points="310.3,10.9 285.9,46.7 241.8,46.7 266.2,10.9 	"/>
	<polygon class="st1" points="250.9,10.9 226.4,46.7 182.3,46.7 206.8,10.9 	"/>
	<polygon class="st1" points="191.5,10.9 167,46.7 122.9,46.7 147.4,10.9 	"/>
	<rect x="119.4" y="55.7" transform="matrix(0.5676 -0.8233 0.8233 0.5676 2.804 124.4294)" class="st1" width="0.9" height="7.7"/>
	<path class="st1" d="M457.7,481H184.6l8.4-44.5h256.4L457.7,481z M193.8,473.3h254.6l-5.5-29.1H199.3L193.8,473.3z"/>
	<path class="st1" d="M457.7,481H184.6l8.4-44.5h256.4L457.7,481z M193.8,473.3h254.6l-5.5-29.1H199.3L193.8,473.3z"/>
	<path class="st1" d="M666.4,82.9H441.6l-4.9-26.5h234.6L666.4,82.9z M448,75.2h212l2.1-11.2H445.9L448,75.2z"/>
	<path class="st1" d="M666.4,82.9H441.6l-4.9-26.5h234.6L666.4,82.9z M448,75.2h212l2.1-11.2H445.9L448,75.2z"/>
	<path class="st1" d="M0,195.9v-55.4l84.1-84.1h341l7,38h243.9l7.1-38h150v45.7l-11.4,2.9v9.4l11.4,2.9v78.6l0,4.4v136.8l0,4.4v55.4
		l-1.1,1.1L748.9,481h-90l-4.8-11.9h-19.7l-4.8,11.9H469.4l-10.5-56H183.4l-10.5,56H0V341.5 M7.7,348.4v124.9h158.8l10.5-56h288.2
		l10.5,56h148.7l4.8-11.9h30.1l4.8,11.9h81.6l79.6-79.6v-45.3l0-4.4V193.4l0-4.4v-65.8l-11.4-2.9V99l11.4-2.9V64.1H689.4l-7,38
		H425.7l-7-38H87.2L7.7,143.6V189"/>
	<path class="st1" d="M0,195.9v-55.4l84.1-84.1h341l7,38h243.9l7.1-38h150v45.7l-11.4,2.9v9.4l11.4,2.9v78.6l0,4.4v136.8l0,4.4v55.4
		l-1.1,1.1L748.9,481h-90l-4.8-11.9h-19.7l-4.8,11.9H469.4l-10.5-56H183.4l-10.5,56H0V341.5 M7.7,348.4v124.9h158.8l10.5-56h288.2
		l10.5,56h148.7l4.8-11.9h30.1l4.8,11.9h81.6l79.6-79.6v-45.3l0-4.4V193.4l0-4.4v-65.8l-11.4-2.9V99l11.4-2.9V64.1H689.4l-7,38
		H425.7l-7-38H87.2L7.7,143.6V189"/>
	<polygon class="st1" points="299.1,62.1 292.8,57.7 332.3,0 833.1,0 833.1,59.9 825.5,59.9 825.5,7.7 336.4,7.7 	"/>
	<polygon class="st1" points="299.1,62.1 292.8,57.7 332.3,0 833.1,0 833.1,59.9 825.5,59.9 825.5,7.7 336.4,7.7 	"/>
	
		<rect x="251.7" y="55.7" transform="matrix(0.5677 -0.8232 0.8232 0.5677 59.9569 233.3038)" class="st1" width="0.9" height="7.7"/>
	
		<rect x="207.6" y="55.7" transform="matrix(0.5677 -0.8232 0.8232 0.5677 40.9065 197.0096)" class="st1" width="0.9" height="7.7"/>
	
		<rect x="163.5" y="55.7" transform="matrix(0.5676 -0.8233 0.8233 0.5676 21.8671 160.7314)" class="st1" width="0.9" height="7.7"/>
	<rect x="119.4" y="55.7" transform="matrix(0.5676 -0.8233 0.8233 0.5676 2.804 124.4294)" class="st1" width="0.9" height="7.7"/>
</g>
<g>
	<g>
		<path class="st2" d="M86.9,63.8l331.5,0.5l5.9,32.3l1.1,5.7h5.8h245.3h5.8l1.1-5.7l5.9-32.3l0,0h0h136v32v0l-6.7,1.7l-5.3,1.3v5.5
			v10.1v5.5l5.3,1.3l6.7,1.7l0,0v0v270l0,0l-80,80h0h-81l0,0l-3.2-7.7l-1.8-4.3h-4.7H634h-4.7l-1.8,4.3l-3.2,7.7h-149l0,0l-9-50.2
			l-1-5.8h-5.9H183.1h-5.8l-1.1,5.7l-9.9,50.3h0H7.3v-330l0,0L86.9,63.8L86.9,63.8L86.9,63.8 M86.9,56.8l-2.9,0l-2.1,2L2.4,138.4
			l-2.1,2.1v2.9v330v7h7h159h5.8l1.1-5.6l9.9-50.4h276.4l9,50.2l1,5.8h5.9h149h4.7l1.8-4.3l3.2-7.7h20.7l3.2,7.7l1.8,4.3h4.7h81h2.9
			l2-2l80-80l2-2.1v-2.9v-270v-5.5l-5.3-1.3l-6.7-1.7v-10.1l6.7-1.7l5.3-1.3v-5.5v-32v-7h-7h-136h-5.8l-1.1,5.7l-5.9,32.3H431.2
			L425.2,63l-1.1-5.7l-5.8,0L86.9,56.8L86.9,56.8z"/>
	</g>
	<path class="st3" d="M86.9,63.8l331.5,0.5l7,38h257l7-38h136v32l-12,3v21l12,3v270l-80,80h-81l-5-12h-30l-5,12h-149l-10-56h-288
		l-11,56H7.4v-330L86.9,63.8"/>
	<g>
		<path class="st2" d="M670.3,56.8h-8.4h-216h-8.4l1.5,8.2l2,11l1,5.8h5.8h212h5.8l1-5.8l2-11L670.3,56.8L670.3,56.8z"/>
	</g>
	<path class="st2" d="M825.5,7.8l-0.1,49.1l-142.9-0.1l-7,38h-244l-7-38l-121.9-0.4l32.9-48.6L825.5,7.8 M832.5,0.8h-7h-490h-3.7
		l-2.1,3.1l-32.9,48.6l-7.4,10.9l13.1,0l116.1,0.4l6,32.3l1.1,5.7h5.8h244h5.8l1.1-5.7l5.9-32.3l137.1,0.1h7l0-7l0.1-49.1L832.5,0.8
		L832.5,0.8z"/>
	<polygon class="st2" points="241.9,46.8 265.9,10.8 309.9,10.8 285.9,46.8 	"/>
	<polygon class="st2" points="182.9,47.3 206.9,11.3 250.9,11.3 226.9,47.3 	"/>
	<polygon class="st2" points="123.9,47.3 147.9,11.3 191.9,11.3 167.9,47.3 	"/>
	<polygon class="st2" points="184.4,481.3 193.4,436.3 448.4,436.3 457.4,481.3 	"/>
</g>
</svg>
