<?xml version="1.0" encoding="utf-8"?>
<!-- Generator: Adobe Illustrator 24.1.0, SVG Export Plug-In . SVG Version: 6.00 Build 0)  -->
<svg version="1.1" id="Layer_1" xmlns="http://www.w3.org/2000/svg" xmlns:xlink="http://www.w3.org/1999/xlink" x="0px" y="0px"
	 viewBox="0 0 657.57 629.03" style="enable-background:new 0 0 657.57 629.03;" xml:space="preserve">
<style type="text/css">
	.st0{fill:url(#SVGID_1_);}
	.st1{fill:url(#SVGID_2_);}
	.st2{fill:url(#SVGID_3_);}
	.st3{fill:url(#SVGID_4_);}
	.st4{fill:url(#SVGID_5_);}
	.st5{fill:url(#SVGID_6_);}
	.st6{fill:url(#SVGID_7_);}
	.st7{fill:url(#SVGID_8_);}
	.st8{fill:url(#SVGID_9_);}
	.st9{fill:url(#SVGID_10_);}
	.st10{fill:url(#SVGID_11_);}
	.st11{fill:url(#SVGID_12_);}
	.st12{fill:url(#SVGID_13_);}
	.st13{fill:url(#SVGID_14_);}
	.st14{fill:url(#SVGID_15_);}
	.st15{fill:url(#SVGID_16_);}
	.st16{fill:url(#SVGID_17_);}
	.st17{fill:url(#SVGID_18_);}
	.st18{fill:url(#SVGID_19_);}
	.st19{fill:url(#SVGID_20_);}
	.st20{fill:url(#SVGID_21_);}
	.st21{fill:url(#SVGID_22_);}
	.st22{fill:url(#SVGID_23_);}
	.st23{fill:url(#SVGID_24_);}
	.st24{fill:url(#SVGID_25_);}
	.st25{fill:url(#SVGID_26_);}
	.st26{fill:url(#SVGID_27_);}
	.st27{fill:url(#SVGID_28_);}
	.st28{fill:url(#SVGID_29_);}
	.st29{fill:url(#SVGID_30_);}
	.st30{fill:url(#SVGID_31_);}
	.st31{fill:url(#SVGID_32_);}
	.st32{fill:url(#SVGID_33_);}
	.st33{fill:url(#SVGID_34_);}
	.st34{fill:url(#SVGID_35_);}
	.st35{fill:url(#SVGID_36_);}
	.st36{fill:url(#SVGID_37_);}
	.st37{fill:url(#SVGID_38_);}
	.st38{fill:url(#SVGID_39_);}
</style>
<g>
	
		<linearGradient id="SVGID_1_" gradientUnits="userSpaceOnUse" x1="-494.9161" y1="62.0251" x2="490.2718" y2="766.3418" gradientTransform="matrix(1 0 0 -1 0 632)">
		<stop  offset="0" style="stop-color:#1C2533"/>
		<stop  offset="0.5468" style="stop-color:#154C5A"/>
		<stop  offset="1" style="stop-color:#0E6F7D"/>
	</linearGradient>
	<path class="st0" d="M5.31,298.43H0c0-96.1,41.73-187.3,114.5-250.2l3.48,4.02C46.38,114.14,5.31,203.87,5.31,298.43z"/>
	
		<linearGradient id="SVGID_2_" gradientUnits="userSpaceOnUse" x1="-289.8494" y1="-224.8173" x2="695.3392" y2="479.4998" gradientTransform="matrix(1 0 0 -1 0 632)">
		<stop  offset="0" style="stop-color:#1C2533"/>
		<stop  offset="0.5468" style="stop-color:#154C5A"/>
		<stop  offset="1" style="stop-color:#0E6F7D"/>
	</linearGradient>
	<path class="st1" d="M330.6,629.03c-68,0-133.31-20.48-188.88-59.23C87.41,531.92,46.1,479.4,22.25,417.92l4.96-1.92
		c48.18,124.24,170.1,207.72,303.39,207.72V629.03z"/>
	
		<linearGradient id="SVGID_3_" gradientUnits="userSpaceOnUse" x1="-155.3017" y1="-413.0166" x2="829.8833" y2="291.2979" gradientTransform="matrix(1 0 0 -1 0 632)">
		<stop  offset="0" style="stop-color:#1C2533"/>
		<stop  offset="0.5468" style="stop-color:#154C5A"/>
		<stop  offset="1" style="stop-color:#0E6F7D"/>
	</linearGradient>
	<path class="st2" d="M478.31,594.28l-2.38-4.75c3.4-1.7,6.8-3.48,10.12-5.29l2.54,4.67C485.22,590.74,481.76,592.55,478.31,594.28z
		"/>
	
		<linearGradient id="SVGID_4_" gradientUnits="userSpaceOnUse" x1="-162.4778" y1="-402.9827" x2="822.71" y2="301.3339" gradientTransform="matrix(1 0 0 -1 0 632)">
		<stop  offset="0" style="stop-color:#1C2533"/>
		<stop  offset="0.5468" style="stop-color:#154C5A"/>
		<stop  offset="1" style="stop-color:#0E6F7D"/>
	</linearGradient>
	<path class="st3" d="M498.63,583.2l-2.64-4.61c47.55-27.22,88.68-69.41,118.93-122.02l4.61,2.65
		C588.81,512.64,547,555.51,498.63,583.2z"/>
	
		<linearGradient id="SVGID_5_" gradientUnits="userSpaceOnUse" x1="-322.9106" y1="-178.5751" x2="662.2769" y2="525.7413" gradientTransform="matrix(1 0 0 -1 0 632)">
		<stop  offset="0" style="stop-color:#1C2533"/>
		<stop  offset="0.5468" style="stop-color:#154C5A"/>
		<stop  offset="1" style="stop-color:#0E6F7D"/>
	</linearGradient>
	<path class="st4" d="M652.3,250c-11.38-76.28-49.89-146.31-108.42-197.18l3.49-4.01c59.49,51.7,98.62,122.88,110.2,200.41
		L652.3,250z"/>
	
		<linearGradient id="SVGID_6_" gradientUnits="userSpaceOnUse" x1="-177.5149" y1="219.9825" x2="119.0394" y2="351.1509" gradientTransform="matrix(1 0 0 -1 0 632)">
		<stop  offset="0" style="stop-color:#1C2533"/>
		<stop  offset="0.5468" style="stop-color:#154C5A"/>
		<stop  offset="1" style="stop-color:#0E6F7D"/>
	</linearGradient>
	<path class="st5" d="M65.93,440.45c-22.94-43.03-35.06-91.71-35.06-140.78c0-45.06,9.76-88.38,29-128.76l18.59,8.86
		c-17.91,37.59-27,77.93-27,119.91c0,45.7,11.29,91.03,32.64,131.09L65.93,440.45z"/>
	
		<linearGradient id="SVGID_7_" gradientUnits="userSpaceOnUse" x1="75.02" y1="196.39" x2="75.02" y2="196.39" gradientTransform="matrix(1 0 0 -1 0 632)">
		<stop  offset="0" style="stop-color:#1C2533"/>
		<stop  offset="0.5468" style="stop-color:#154C5A"/>
		<stop  offset="1" style="stop-color:#0E6F7D"/>
	</linearGradient>
	<path class="st6" d="M75.02,435.61"/>
	
		<linearGradient id="SVGID_8_" gradientUnits="userSpaceOnUse" x1="-331.4613" y1="-166.6134" x2="653.727" y2="537.7035" gradientTransform="matrix(1 0 0 -1 0 632)">
		<stop  offset="0" style="stop-color:#1C2533"/>
		<stop  offset="0.5468" style="stop-color:#154C5A"/>
		<stop  offset="1" style="stop-color:#0E6F7D"/>
	</linearGradient>
	<path class="st7" d="M103.44,495.2c-2.41-2.8-4.8-5.68-7.11-8.56l16.09-12.86c2.15,2.69,4.38,5.37,6.62,7.98L103.44,495.2z"/>
	
		<linearGradient id="SVGID_9_" gradientUnits="userSpaceOnUse" x1="-320.4673" y1="-181.9873" x2="664.7184" y2="522.3278" gradientTransform="matrix(1 0 0 -1 0 632)">
		<stop  offset="0" style="stop-color:#1C2533"/>
		<stop  offset="0.5468" style="stop-color:#154C5A"/>
		<stop  offset="1" style="stop-color:#0E6F7D"/>
	</linearGradient>
	<path class="st8" d="M117.98,510.91c-3.43-3.45-6.83-7.04-10.1-10.67l15.3-13.79c3.05,3.38,6.21,6.73,9.41,9.94L117.98,510.91z"/>
	
		<linearGradient id="SVGID_10_" gradientUnits="userSpaceOnUse" x1="-303.1422" y1="-206.2211" x2="682.0453" y2="498.0953" gradientTransform="matrix(1 0 0 -1 0 632)">
		<stop  offset="0" style="stop-color:#1C2533"/>
		<stop  offset="0.5468" style="stop-color:#154C5A"/>
		<stop  offset="1" style="stop-color:#0E6F7D"/>
	</linearGradient>
	<path class="st9" d="M148.69,537.88c-9-6.88-17.7-14.35-25.88-22.22l14.28-14.84c7.62,7.33,15.73,14.29,24.11,20.7L148.69,537.88z"
		/>
	
		<linearGradient id="SVGID_11_" gradientUnits="userSpaceOnUse" x1="-176.7697" y1="-382.992" x2="808.4175" y2="321.3242" gradientTransform="matrix(1 0 0 -1 0 632)">
		<stop  offset="0" style="stop-color:#1C2533"/>
		<stop  offset="0.5468" style="stop-color:#154C5A"/>
		<stop  offset="1" style="stop-color:#0E6F7D"/>
	</linearGradient>
	<path class="st10" d="M512.39,537.89l-12.51-16.36c11.51-8.8,22.43-18.58,32.45-29.06l14.89,14.23
		C536.47,517.94,524.75,528.44,512.39,537.89z"/>
	
		<linearGradient id="SVGID_12_" gradientUnits="userSpaceOnUse" x1="539.78" y1="132.43" x2="539.78" y2="132.43" gradientTransform="matrix(1 0 0 -1 0 632)">
		<stop  offset="0" style="stop-color:#1C2533"/>
		<stop  offset="0.5468" style="stop-color:#154C5A"/>
		<stop  offset="1" style="stop-color:#0E6F7D"/>
	</linearGradient>
	<path class="st11" d="M539.78,499.57"/>
	
		<linearGradient id="SVGID_13_" gradientUnits="userSpaceOnUse" x1="745.5924" y1="453.348" x2="456.1664" y2="285.1103" gradientTransform="matrix(1 0 0 -1 0 632)">
		<stop  offset="0" style="stop-color:#1C2533"/>
		<stop  offset="0.5468" style="stop-color:#154C5A"/>
		<stop  offset="1" style="stop-color:#0E6F7D"/>
	</linearGradient>
	<path class="st12" d="M561.02,489.6l-14.3-11.8c41.23-49.97,63.93-113.23,63.93-178.13c0-73.25-28.09-142.54-79.1-195.08
		l13.3-12.91c54.39,56.03,84.34,129.89,84.34,207.99c0,35.28-6.09,69.82-18.12,102.66C599.46,434.06,582.62,463.43,561.02,489.6z"/>
	
		<linearGradient id="SVGID_14_" gradientUnits="userSpaceOnUse" x1="591.7369" y1="718.0327" x2="302.3109" y2="549.795" gradientTransform="matrix(1 0 0 -1 0 632)">
		<stop  offset="0" style="stop-color:#1C2533"/>
		<stop  offset="0.5468" style="stop-color:#154C5A"/>
		<stop  offset="1" style="stop-color:#0E6F7D"/>
	</linearGradient>
	<path class="st13" d="M463.56,54.27C423,32.24,377.01,20.6,330.54,20.6V0c49.89,0,99.28,12.51,142.85,36.17L463.56,54.27z"/>
	
		<linearGradient id="SVGID_15_" gradientUnits="userSpaceOnUse" x1="-490.9604" y1="56.4946" x2="494.2274" y2="760.811" gradientTransform="matrix(1 0 0 -1 0 632)">
		<stop  offset="0" style="stop-color:#1C2533"/>
		<stop  offset="0.5468" style="stop-color:#154C5A"/>
		<stop  offset="1" style="stop-color:#0E6F7D"/>
	</linearGradient>
	<path class="st14" d="M120.72,149.56l-6.7-4.8C150.61,93.7,204.1,57.1,264.65,41.68l2.03,7.98
		C208.02,64.61,156.19,100.08,120.72,149.56z"/>
	
		<linearGradient id="SVGID_16_" gradientUnits="userSpaceOnUse" x1="117.37" y1="484.84" x2="117.37" y2="484.84" gradientTransform="matrix(1 0 0 -1 0 632)">
		<stop  offset="0" style="stop-color:#1C2533"/>
		<stop  offset="0.5468" style="stop-color:#154C5A"/>
		<stop  offset="1" style="stop-color:#0E6F7D"/>
	</linearGradient>
	<path class="st15" d="M117.37,147.16"/>
	
		<linearGradient id="SVGID_17_" gradientUnits="userSpaceOnUse" x1="-396.5317" y1="-75.5916" x2="588.6567" y2="628.7254" gradientTransform="matrix(1 0 0 -1 0 632)">
		<stop  offset="0" style="stop-color:#1C2533"/>
		<stop  offset="0.5468" style="stop-color:#154C5A"/>
		<stop  offset="1" style="stop-color:#0E6F7D"/>
	</linearGradient>
	<path class="st16" d="M141,486.6c-49.44-50.13-76.67-116.51-76.67-186.92c0-33.93,6.3-66.98,18.71-98.23l7.66,3.04
		c-12.03,30.28-18.13,62.31-18.13,95.19c0,68.23,26.38,132.56,74.29,181.14L141,486.6z"/>
	
		<linearGradient id="SVGID_18_" gradientUnits="userSpaceOnUse" x1="-254.5902" y1="-274.1373" x2="730.6016" y2="430.1821" gradientTransform="matrix(1 0 0 -1 0 632)">
		<stop  offset="0" style="stop-color:#1C2533"/>
		<stop  offset="0.5468" style="stop-color:#154C5A"/>
		<stop  offset="1" style="stop-color:#0E6F7D"/>
	</linearGradient>
	<path class="st17" d="M319.4,565.65c-46.92-1.93-92.59-16.3-132.07-41.54l4.44-6.94c38.25,24.46,82.5,38.37,127.97,40.25
		L319.4,565.65z"/>
	
		<linearGradient id="SVGID_19_" gradientUnits="userSpaceOnUse" x1="-203.4239" y1="-345.7084" x2="781.7634" y2="358.6078" gradientTransform="matrix(1 0 0 -1 0 632)">
		<stop  offset="0" style="stop-color:#1C2533"/>
		<stop  offset="0.5468" style="stop-color:#154C5A"/>
		<stop  offset="1" style="stop-color:#0E6F7D"/>
	</linearGradient>
	<path class="st18" d="M341.47,565.66l-0.33-8.23c89.31-3.61,171.76-54.52,215.2-132.89l7.21,3.99
		c-21.79,39.32-53.45,72.76-91.55,96.7C432.87,549.81,387.74,563.79,341.47,565.66z"/>
	
		<linearGradient id="SVGID_20_" gradientUnits="userSpaceOnUse" x1="-128.791" y1="109.8192" x2="167.7647" y2="240.9882" gradientTransform="matrix(1 0 0 -1 0 632)">
		<stop  offset="0" style="stop-color:#1C2533"/>
		<stop  offset="0.5468" style="stop-color:#154C5A"/>
		<stop  offset="1" style="stop-color:#0E6F7D"/>
	</linearGradient>
	<path class="st19" d="M590.81,287.7c-2.38-52.73-20.46-102.86-52.27-144.95l2.46-1.86c32.19,42.6,50.48,93.32,52.89,146.68
		L590.81,287.7z"/>
	
		<linearGradient id="SVGID_21_" gradientUnits="userSpaceOnUse" x1="-408.5024" y1="-58.8481" x2="576.6814" y2="645.4655" gradientTransform="matrix(1 0 0 -1 0 632)">
		<stop  offset="0" style="stop-color:#1C2533"/>
		<stop  offset="0.5468" style="stop-color:#154C5A"/>
		<stop  offset="1" style="stop-color:#0E6F7D"/>
	</linearGradient>
	<path class="st20" d="M536.49,144.3C487.22,79.1,412.16,41.71,330.54,41.71v-8.24c42.45,0,83.03,9.7,120.6,28.82
		c35.83,18.24,67.62,44.88,91.92,77.04L536.49,144.3z"/>
	
		<linearGradient id="SVGID_22_" gradientUnits="userSpaceOnUse" x1="-245.9607" y1="-286.2083" x2="739.2272" y2="418.1083" gradientTransform="matrix(1 0 0 -1 0 632)">
		<stop  offset="0" style="stop-color:#1C2533"/>
		<stop  offset="0.5468" style="stop-color:#154C5A"/>
		<stop  offset="1" style="stop-color:#0E6F7D"/>
	</linearGradient>
	<path class="st21" d="M377.77,482.03l-7.63-29.94c6.11-1.56,12.19-3.5,18.07-5.77c20.25-7.81,39.19-20.03,54.79-35.33l21.64,22.05
		c-18.58,18.23-41.16,32.79-65.3,42.1C392.32,477.86,385.06,480.17,377.77,482.03z"/>
	
		<linearGradient id="SVGID_23_" gradientUnits="userSpaceOnUse" x1="-246.7374" y1="-285.1183" x2="738.4492" y2="419.1973" gradientTransform="matrix(1 0 0 -1 0 632)">
		<stop  offset="0" style="stop-color:#1C2533"/>
		<stop  offset="0.5468" style="stop-color:#154C5A"/>
		<stop  offset="1" style="stop-color:#0E6F7D"/>
	</linearGradient>
	<path class="st22" d="M474.21,422.95l-23.17-20.43c3.58-4.06,6.98-8.34,10.13-12.73l25.11,18
		C482.54,413.01,478.47,418.11,474.21,422.95z"/>
	
		<linearGradient id="SVGID_24_" gradientUnits="userSpaceOnUse" x1="-307.2037" y1="-200.5428" x2="677.9877" y2="503.7763" gradientTransform="matrix(1 0 0 -1 0 632)">
		<stop  offset="0" style="stop-color:#1C2533"/>
		<stop  offset="0.5468" style="stop-color:#154C5A"/>
		<stop  offset="1" style="stop-color:#0E6F7D"/>
	</linearGradient>
	<path class="st23" d="M508.6,366.95l-28.71-11.41c7.5-18.88,11.3-38.85,11.3-59.36c0-42.55-16.45-82.67-46.33-112.96l22-21.69
		c35.62,36.11,55.23,83.93,55.23,134.66C522.09,320.61,517.55,344.42,508.6,366.95z"/>
	
		<linearGradient id="SVGID_25_" gradientUnits="userSpaceOnUse" x1="-395.9056" y1="-76.4659" x2="589.2797" y2="627.849" gradientTransform="matrix(1 0 0 -1 0 632)">
		<stop  offset="0" style="stop-color:#1C2533"/>
		<stop  offset="0.5468" style="stop-color:#154C5A"/>
		<stop  offset="1" style="stop-color:#0E6F7D"/>
	</linearGradient>
	<path class="st24" d="M151.29,326.07c-1.17-7.09-1.94-14.34-2.26-21.56l10.29-0.47c0.31,6.81,1.03,13.65,2.14,20.34L151.29,326.07z
		"/>
	
		<linearGradient id="SVGID_26_" gradientUnits="userSpaceOnUse" x1="-363.6844" y1="-121.5354" x2="621.5027" y2="582.7808" gradientTransform="matrix(1 0 0 -1 0 632)">
		<stop  offset="0" style="stop-color:#1C2533"/>
		<stop  offset="0.5468" style="stop-color:#154C5A"/>
		<stop  offset="1" style="stop-color:#0E6F7D"/>
	</linearGradient>
	<path class="st25" d="M185.44,405.48c-14.85-19.66-25.75-42.66-31.52-66.5l10.01-2.42c5.44,22.49,15.72,44.17,29.73,62.71
		L185.44,405.48z"/>
	
		<linearGradient id="SVGID_27_" gradientUnits="userSpaceOnUse" x1="5.5491" y1="495.3281" x2="276.4398" y2="170.2595" gradientTransform="matrix(1 0 0 -1 0 632)">
		<stop  offset="0" style="stop-color:#1C2533"/>
		<stop  offset="0.5468" style="stop-color:#154C5A"/>
		<stop  offset="1" style="stop-color:#0E6F7D"/>
	</linearGradient>
	<path class="st26" d="M330.32,487.95c-30.58,0-59.81-6.99-86.88-20.77c-25.81-13.14-48.7-32.32-66.21-55.49l24.65-18.62
		c30.73,40.67,77.54,63.99,128.44,63.99V487.95z"/>
	
		<linearGradient id="SVGID_28_" gradientUnits="userSpaceOnUse" x1="-221.1082" y1="-320.9727" x2="764.0806" y2="383.3444" gradientTransform="matrix(1 0 0 -1 0 632)">
		<stop  offset="0" style="stop-color:#1C2533"/>
		<stop  offset="0.5468" style="stop-color:#154C5A"/>
		<stop  offset="1" style="stop-color:#0E6F7D"/>
	</linearGradient>
	<path class="st27" d="M330.23,542.79c-8.61,0-17.22-0.46-25.83-1.39l0.44-4.1c55.8,6.02,112.33-8.01,159.16-39.51l2.3,3.42
		C425.88,528.39,378.37,542.79,330.23,542.79z"/>
	
		<linearGradient id="SVGID_29_" gradientUnits="userSpaceOnUse" x1="-213.0086" y1="-332.3074" x2="772.1783" y2="372.0085" gradientTransform="matrix(1 0 0 -1 0 632)">
		<stop  offset="0" style="stop-color:#1C2533"/>
		<stop  offset="0.5468" style="stop-color:#154C5A"/>
		<stop  offset="1" style="stop-color:#0E6F7D"/>
	</linearGradient>
	<path class="st28" d="M510.91,462.56l-3.06-2.76c14.21-15.72,26.26-33.29,35.83-52.24l3.68,1.86
		C537.63,428.69,525.37,446.57,510.91,462.56z"/>
	
		<linearGradient id="SVGID_30_" gradientUnits="userSpaceOnUse" x1="-224.4363" y1="-316.3107" x2="760.7484" y2="388.0035" gradientTransform="matrix(1 0 0 -1 0 632)">
		<stop  offset="0" style="stop-color:#1C2533"/>
		<stop  offset="0.5468" style="stop-color:#154C5A"/>
		<stop  offset="1" style="stop-color:#0E6F7D"/>
	</linearGradient>
	<path class="st29" d="M552.75,398.02l-3.75-1.7c1.35-2.98,2.64-6.01,3.85-9.02l3.82,1.54C555.45,391.91,554.13,395,552.75,398.02z"
		/>
	
		<linearGradient id="SVGID_31_" gradientUnits="userSpaceOnUse" x1="-232.923" y1="-304.4525" x2="752.2689" y2="399.8668" gradientTransform="matrix(1 0 0 -1 0 632)">
		<stop  offset="0" style="stop-color:#1C2533"/>
		<stop  offset="0.5468" style="stop-color:#154C5A"/>
		<stop  offset="1" style="stop-color:#0E6F7D"/>
	</linearGradient>
	<path class="st30" d="M561.01,377.15l-3.9-1.34c1.79-5.22,3.41-10.56,4.81-15.88l3.98,1.05
		C564.48,366.39,562.84,371.83,561.01,377.15z"/>
	
		<linearGradient id="SVGID_32_" gradientUnits="userSpaceOnUse" x1="-278.1307" y1="-241.2166" x2="707.0569" y2="463.0998" gradientTransform="matrix(1 0 0 -1 0 632)">
		<stop  offset="0" style="stop-color:#1C2533"/>
		<stop  offset="0.5468" style="stop-color:#154C5A"/>
		<stop  offset="1" style="stop-color:#0E6F7D"/>
	</linearGradient>
	<path class="st31" d="M568.84,348.42l-4.02-0.89c10.34-46.92,4.72-97.41-16.27-146.02l3.78-1.63
		C573.65,249.29,579.36,300.65,568.84,348.42z"/>
	
		<linearGradient id="SVGID_33_" gradientUnits="userSpaceOnUse" x1="634.4113" y1="740.5997" x2="335.0052" y2="566.6593" gradientTransform="matrix(1 0 0 -1 0 632)">
		<stop  offset="0" style="stop-color:#1C2533"/>
		<stop  offset="0.5468" style="stop-color:#154C5A"/>
		<stop  offset="1" style="stop-color:#0E6F7D"/>
	</linearGradient>
	<path class="st32" d="M240.89,77.6l-1.71-3.75c19.12-8.73,40.26-13.71,68.53-16.17c31.96-4,65.01-0.47,98.18,10.48l-1.29,3.91
		c-32.58-10.76-65.03-14.23-96.45-10.3C280.28,64.2,259.57,69.07,240.89,77.6z"/>
	
		<linearGradient id="SVGID_34_" gradientUnits="userSpaceOnUse" x1="-482.9133" y1="45.2308" x2="502.2772" y2="749.5493" gradientTransform="matrix(1 0 0 -1 0 632)">
		<stop  offset="0" style="stop-color:#1C2533"/>
		<stop  offset="0.5468" style="stop-color:#154C5A"/>
		<stop  offset="1" style="stop-color:#0E6F7D"/>
	</linearGradient>
	<path class="st33" d="M174.61,117.83l-2.68-3.13c16.83-14.4,35.57-26.46,55.71-35.83l1.74,3.73
		C209.58,91.82,191.15,103.67,174.61,117.83z"/>
	
		<linearGradient id="SVGID_35_" gradientUnits="userSpaceOnUse" x1="-450.484" y1="-0.1156" x2="534.6974" y2="704.1966" gradientTransform="matrix(1 0 0 -1 0 632)">
		<stop  offset="0" style="stop-color:#1C2533"/>
		<stop  offset="0.5468" style="stop-color:#154C5A"/>
		<stop  offset="1" style="stop-color:#0E6F7D"/>
	</linearGradient>
	<path class="st34" d="M97.6,244.15l-4.01-0.96c0.38-1.59,0.77-3.17,1.19-4.75l3.99,1.04C98.36,241.03,97.97,242.59,97.6,244.15z"/>
	
		<linearGradient id="SVGID_36_" gradientUnits="userSpaceOnUse" x1="-442.8795" y1="-10.7666" x2="542.3134" y2="693.5537" gradientTransform="matrix(1 0 0 -1 0 632)">
		<stop  offset="0" style="stop-color:#1C2533"/>
		<stop  offset="0.5468" style="stop-color:#154C5A"/>
		<stop  offset="1" style="stop-color:#0E6F7D"/>
	</linearGradient>
	<path class="st35" d="M93.6,264.96l-4.08-0.6c0.44-3,0.94-6.03,1.49-9l4.05,0.75C94.52,259.03,94.03,262.01,93.6,264.96z"/>
	
		<linearGradient id="SVGID_37_" gradientUnits="userSpaceOnUse" x1="-432.9908" y1="-24.5955" x2="552.1991" y2="679.7226" gradientTransform="matrix(1 0 0 -1 0 632)">
		<stop  offset="0" style="stop-color:#1C2533"/>
		<stop  offset="0.5468" style="stop-color:#154C5A"/>
		<stop  offset="1" style="stop-color:#0E6F7D"/>
	</linearGradient>
	<path class="st36" d="M91.42,288.9l-4.12-0.15c0.15-3.94,0.38-7.92,0.71-11.83l4.11,0.34C91.8,281.11,91.57,285.02,91.42,288.9z"/>
	
		<linearGradient id="SVGID_38_" gradientUnits="userSpaceOnUse" x1="-407.4221" y1="-60.3568" x2="577.7661" y2="643.96" gradientTransform="matrix(1 0 0 -1 0 632)">
		<stop  offset="0" style="stop-color:#1C2533"/>
		<stop  offset="0.5468" style="stop-color:#154C5A"/>
		<stop  offset="1" style="stop-color:#0E6F7D"/>
	</linearGradient>
	<path class="st37" d="M97.14,368.88c-6.47-22.42-9.84-45.64-10-69.01l4.12-0.03c0.16,23,3.47,45.84,9.83,67.9L97.14,368.88z"/>
	
		<linearGradient id="SVGID_39_" gradientUnits="userSpaceOnUse" x1="-327.2413" y1="-172.5122" x2="657.9453" y2="531.8035" gradientTransform="matrix(1 0 0 -1 0 632)">
		<stop  offset="0" style="stop-color:#1C2533"/>
		<stop  offset="0.5468" style="stop-color:#154C5A"/>
		<stop  offset="1" style="stop-color:#0E6F7D"/>
	</linearGradient>
	<path class="st38" d="M245.34,527.4c-36.35-13.55-68.01-34.81-94.07-63.18c-24.86-27.06-43.58-60.02-54.13-95.33l3.95-1.18
		c21.69,72.6,74.79,129.39,145.69,155.82L245.34,527.4z"/>
</g>
</svg>
