<svg id="Layer_1" data-name="Layer 1" xmlns="http://www.w3.org/2000/svg" viewBox="0 0 212.35 1216.73"><defs><style>.cls-1{fill:#7a7a7a;}.cls-2{fill:#616161;}.cls-3{fill:#c2c2c2;}.cls-4{fill:#dbdbdb;}.cls-5{fill:#f2f2f2;}.cls-6{fill:#aaa;}.cls-7{fill:#919191;}.cls-8{fill:#232323;}.cls-9{fill:#3a3a3a;}.cls-10{fill:#515151;}.cls-11{fill:#636363;}.cls-12{fill:#161616;}.cls-13{fill:#525252;}.cls-14{fill:#797979;}.cls-15{fill:#303030;}</style></defs><g id="Group_82" data-name="Group 82"><path id="Path_58" data-name="Path 58" class="cls-1" d="M85.21,1216.73h-13a4.36,4.36,0,0,1-4.36-4.36,5.49,5.49,0,0,1,0-.7l2.76-16.92a38.62,38.62,0,0,0,12.83,2.16h4.35l1.76,14.95a4.36,4.36,0,0,1-3.83,4.84Z"/><path id="Path_59" data-name="Path 59" class="cls-1" d="M143.13,1216.73H130.06a4.36,4.36,0,0,1-4.33-4.87l1.76-14.95a38.08,38.08,0,0,0,16.89-4l3.06,18.74a4.37,4.37,0,0,1-3.6,5A5.65,5.65,0,0,1,143.13,1216.73Z"/><path id="Path_60" data-name="Path 60" class="cls-2" d="M87.79,1196.91H83.44a38.62,38.62,0,0,1-12.83-2.16l.67-4.13a39.2,39.2,0,0,0,12.16,1.93h3.85Z"/><path id="Path_61" data-name="Path 61" class="cls-2" d="M144.38,1192.93a38.08,38.08,0,0,1-16.89,4l.51-4.38a38.33,38.33,0,0,0,15.73-3.63Z"/><path id="Path_62" data-name="Path 62" class="cls-1" d="M83.44,1192.55a38.91,38.91,0,0,1-12.16-1.93l1.57-9.57H85.93l1.36,11.5Z"/><path id="Path_63" data-name="Path 63" class="cls-1" d="M143.73,1188.9a38.33,38.33,0,0,1-15.73,3.63l1.36-11.48h13.09Z"/><path id="Path_64" data-name="Path 64" class="cls-3" d="M162.69,1158.44a35.5,35.5,0,0,1-35.37,35.62H83.44A35.47,35.47,0,0,1,48,1158.6v-.16l.69-172.93.12-26.78.28-68.88,0-13.39L50,609.18l.11-26.79.71-215.62.06-13.39.75-224.23c0-6.91,1.3-17.59,3.67-29.9.11-.56.21-1.11.33-1.67A353.93,353.93,0,0,1,67.37,53.46C77.09,24.88,90.5,0,105.33,0,127.76,0,147,57,155,97.58c.12.56.23,1.11.33,1.67,2.37,12.32,3.67,23,3.67,29.9l.75,224.23.05,13.39.71,215.62.11,26.79.92,267.27.06,13.4.29,68.88.1,26.78Z"/><path id="Path_65" data-name="Path 65" class="cls-4" d="M105.22,1173.82a23.4,23.4,0,0,1-2.74,11.59c-1.8,3.12-4.15,4.83-6.68,4.83H70.63c-2.53,0-4.9-1.7-6.68-4.83a23.43,23.43,0,0,1-2.74-11.57l.4-172.94,0-15.38.06-26.79.13-53.5,0-13.41v-2l0-13.4.54-267.28.05-26.78.42-215.62,0-13.4.4-208.84c0-6,.77-16.46,2.09-27.94,1.59-14,3.84-28.75,6.37-41.67,4.86-24.83,9.28-35.8,11.46-39.45C87.84,42.8,96,73,101,116.59c1.32,11.48,2.1,21.89,2.1,27.86l.4,208.92v13.4l.4,215.62.08,26.78.54,267.28,0,13.4,0,15.38.14,53.5,0,15.38,0,11.4,0,15.39Z"/><path id="Path_66" data-name="Path 66" class="cls-5" d="M93.74,1173.82a46.16,46.16,0,0,1-1.3,11.59c-.84,3.12-2,4.83-3.18,4.83h-12c-1.18,0-2.31-1.7-3.15-4.83a46,46,0,0,1-1.3-11.57L73,1000.9l0-15.38,0-26.79.06-53.5V889.85l0-13.4.25-267.28,0-26.78.19-215.62v-13.4l.19-208.84c0-6,.38-16.46,1-27.94.76-14,1.83-28.75,3-41.67,2.3-24.83,4.4-35.8,5.43-39.45,2.18,7.33,6.07,37.54,8.42,81.12.63,11.48,1,21.89,1,27.86l.2,208.92,0,13.4.19,215.62,0,26.78.24,267.28,0,13.4,0,15.38.08,53.5,0,15.38v11.4l0,15.39Z"/><path id="Path_67" data-name="Path 67" class="cls-6" d="M151,1173.84a23.2,23.2,0,0,1-1.91,9.58c-1.15,3.12-4,5.8-5.68,5.8l-14.85,1c-1.63,0-3.18-1.7-4.32-4.82a34.64,34.64,0,0,1-1.78-11.6l.27-172.94V985.52l0-11.4,0-15.39.08-53.5,0-15.38,0-13.39.34-267.28,0-26.79.27-215.62,0-13.39.24-208.92c0-6,.52-16.38,1.36-27.86,3.22-43.59,8.54-73.8,11.52-81.12,1.42,3.65,4.27,14.61,7.42,39.45,1.65,12.91,3.12,27.7,4.14,41.67.86,11.48,1.36,21.9,1.36,27.93l.24,208.85,0,13.39.27,215.62,0,26.79.34,267.28,0,13.39v2l0,13.41.08,53.5.06,26.79,0,15.38Z"/><path id="Path_68" data-name="Path 68" class="cls-7" d="M139.66,1175.75c0,4.36-.18,8.48-.48,11.58s-.73,4.82-1.15,4.82h-4.38c-.44,0-.86-1.7-1.17-4.82s-.48-7.22-.48-11.6l.08-172.94V976l0-17.3,0-51.58v-17.3l0-13.39.07-267.28,0-26.79.06-215.62,0-13.39.06-207c0-6,.13-16.38.36-27.86.86-43.58,2.3-73.8,3.1-81.12.38,3.65,1.15,14.62,2,39.45.44,12.92.82,27.7,1.11,41.67.23,11.48.36,21.89.36,27.94l.06,206.93,0,13.39.08,215.62v26.79l.1,267.28v30.69l0,51.58,0,26.79v17.3Z"/><g id="Group_12" data-name="Group 12"><path id="Path_69" data-name="Path 69" class="cls-8" d="M62.93,353.38V523.31H50.84l.06-169.93Z"/></g><g id="Group_13" data-name="Group 13"><path id="Path_70" data-name="Path 70" class="cls-9" d="M123.57,353.38l0,169.93h-20V353.38Z"/></g><g id="Group_14" data-name="Group 14"><path id="Path_71" data-name="Path 71" class="cls-10" d="M73.65,353.38V523.31H62.92V353.38Z"/></g><g id="Group_15" data-name="Group 15"><rect id="Rectangle_3" data-name="Rectangle 3" class="cls-10" x="92.93" y="353.38" width="10.58" height="169.93"/></g><g id="Group_16" data-name="Group 16"><path id="Path_72" data-name="Path 72" class="cls-11" d="M92.93,523.31H73.65V353.38H92.92Z"/></g><g id="Group_17" data-name="Group 17"><path id="Path_73" data-name="Path 73" class="cls-9" d="M159.8,523.31h-9.91l0-169.93h9.9Z"/></g><g id="Group_18" data-name="Group 18"><path id="Path_74" data-name="Path 74" class="cls-8" d="M132.31,353.38l0,169.93h-8.76l0-169.93Z"/></g><g id="Group_19" data-name="Group 19"><path id="Path_75" data-name="Path 75" class="cls-8" d="M149.89,523.31H139.37l0-169.93h10.5Z"/></g><g id="Group_20" data-name="Group 20"><path id="Path_76" data-name="Path 76" class="cls-12" d="M139.37,523.31h-7.08l0-169.93h7Z"/></g><g id="Group_21" data-name="Group 21"><path id="Path_77" data-name="Path 77" class="cls-13" d="M155,97.58H55.65c.11-.56.21-1.11.32-1.66a353.51,353.51,0,0,1,11.4-42.46c9-26.37,21.08-49.57,34.53-53a12.92,12.92,0,0,1,5.38-.31,16.16,16.16,0,0,1,4.36,1.32c7.58,3.56,14.68,13.2,21,25.81,9.78,19.6,17.57,46.38,22.06,68.63C154.79,96.47,154.89,97,155,97.58Z"/></g><g id="Group_22" data-name="Group 22"><path id="Path_78" data-name="Path 78" class="cls-11" d="M152,98.49,63.3,97.58c0-15.85,17.78-74.38,34-90.63,4.22-4.23,8.55-6.08,15-2.12C123.64,11.78,137.37,34.52,152,98.49Z"/></g><g id="Group_23" data-name="Group 23"><path id="Path_79" data-name="Path 79" class="cls-14" d="M101.8,16.32C95.29,40.19,91,77.48,90.56,97.58H76c0-12.16,8.44-57.42,19.29-84.37C98.06,6.39,103.86,8.76,101.8,16.32Z"/></g><g id="Group_24" data-name="Group 24"><path id="Path_80" data-name="Path 80" class="cls-13" d="M126.78,97.58c0-.94,0-1.9,0-2.83s0-1.82,0-2.74-.06-1.89-.1-2.85c-1.34-28.64-9.78-61.19-18.25-80-1-2.24-4.36-5.24-4.07-6.29.67-2.42,7.16-.26,9.45,3.84,15.4,27.58,32.1,80.93,32.79,90.31a3.27,3.27,0,0,1,0,.54Z"/></g><g id="Group_25" data-name="Group 25"><path id="Path_81" data-name="Path 81" class="cls-11" d="M155.33,99.24h-100c.11-.55.21-1.11.33-1.66H155C155.12,98.13,155.23,98.69,155.33,99.24Z"/></g><g id="Group_26" data-name="Group 26"><path id="Path_82" data-name="Path 82" class="cls-13" d="M155,97.58H55.65c.11-.56.21-1.11.32-1.66h98.69C154.79,96.47,154.89,97,155,97.58Z"/></g><path id="Path_83" data-name="Path 83" class="cls-6" d="M162.69,1158.44a35.5,35.5,0,0,1-35.37,35.62H83.44A35.47,35.47,0,0,1,48,1158.6v-.16l0-3.94a35.45,35.45,0,0,0,35.45,34.7H127.2a35.45,35.45,0,0,0,35.47-34.72Z"/><g id="Group_27" data-name="Group 27"><path id="Path_84" data-name="Path 84" class="cls-2" d="M44.46,1194.06H20c-27.62,0-21.24-21.68-12.31-30.61,24.87-24.87,22.06-14.81,33.54-97.09,6.42-16.88,16.21-12.64,16.21-11.41V1184.5C57.39,1189.78,51.6,1194.06,44.46,1194.06Z"/></g><g id="Group_28" data-name="Group 28"><path id="Path_85" data-name="Path 85" class="cls-15" d="M57.61,1055v129.54c0,5.28-5.78,9.57-12.92,9.57H20.18c-10.69,0-16.28-3.26-18.6-7.75a30.76,30.76,0,0,0,12.19,2.06H38.28c7.14,0,12.91-4.26,12.91-9.54V1054.1C54.79,1052.76,57.61,1054.29,57.61,1055Z"/></g><g id="Group_29" data-name="Group 29"><path id="Path_86" data-name="Path 86" class="cls-2" d="M167.88,1194.06h24.51c27.62,0,21.25-21.68,12.32-30.61-24.87-24.87-22.06-14.81-33.54-97.09C164.75,1049.48,155,1053.72,155,1055V1184.5C155,1189.78,160.75,1194.06,167.88,1194.06Z"/></g><g id="Group_30" data-name="Group 30"><path id="Path_87" data-name="Path 87" class="cls-15" d="M154.32,1055v129.54c0,5.28,5.77,9.57,12.91,9.57h24.51c10.7,0,16.28-3.26,18.6-7.75a30.76,30.76,0,0,1-12.19,2.06H173.64c-7.14,0-12.92-4.26-12.92-9.54V1054.1C157.13,1052.76,154.32,1054.29,154.32,1055Z"/></g></g></svg>